PathFileType	4	(X/Y/Z)	s07c0202.trc
DataRate	CameraRate	NumFrames	NumMarkers	Units	OrigDataRate	OrigDataStartFrame	OrigNumFrames
200	200	5	48	mm	200	750	2000
Frame#	Time	racr			lacr			c7			jug			rlel			rdr			llel			ldr			s2			lic			ric			lasi			rasi			rpsi			lpsi			rgt			lgt			rth1			rth2			rth3			rth4			rlfc			rmfc			rsh1			rsh2			rsh3			rsh4			rlmal			rcal			rtoe			rmt5			lth1			lth2			lth4			lth3			llfc			lmfc			lsh1			lsh2			lsh3			lsh4			llmal			lcal			ltoe			lmt5			SBIKE			LBIKE			RBIKE			
		X1	Y1	Z1	X2	Y2	Z2	X3	Y3	Z3	X4	Y4	Z4	X5	Y5	Z5	X6	Y6	Z6	X7	Y7	Z7	X8	Y8	Z8	X9	Y9	Z9	X10	Y10	Z10	X11	Y11	Z11	X12	Y12	Z12	X13	Y13	Z13	X14	Y14	Z14	X15	Y15	Z15	X16	Y16	Z16	X17	Y17	Z17	X18	Y18	Z18	X19	Y19	Z19	X20	Y20	Z20	X21	Y21	Z21	X22	Y22	Z22	X23	Y23	Z23	X24	Y24	Z24	X25	Y25	Z25	X26	Y26	Z26	X27	Y27	Z27	X28	Y28	Z28	X29	Y29	Z29	X30	Y30	Z30	X31	Y31	Z31	X32	Y32	Z32	X33	Y33	Z33	X34	Y34	Z34	X35	Y35	Z35	X36	Y36	Z36	X37	Y37	Z37	X38	Y38	Z38	X39	Y39	Z39	X40	Y40	Z40	X41	Y41	Z41	X42	Y42	Z42	X43	Y43	Z43	X44	Y44	Z44	X45	Y45	Z45	X46	Y46	Z46	X47	Y47	Z47	X48	Y48	Z48	
750	3.7500	440.734510	1468.937865	-97.664005	440.355087	1447.639206	-369.803083	400.123125	1514.048803	-241.527179	364.139918	1365.493687	-234.531342	486.364724	1145.704664	47.033866	686.572313	946.486821	-62.103802	481.295145	1139.077248	-532.383703	688.853883	937.619747	-451.540174	-137.729051	1189.220531	-253.630961	15.396096	1264.006647	-389.295889	15.402159	1262.440672	-97.383503	54.328680	1194.777318	-360.295057	43.190986	1204.860124	-108.958337	-116.859763	1232.967246	-202.614319	-107.647814	1242.976230	-309.139494	-25.264958	1111.508677	-58.724180	-5.494648	1106.945726	-421.208803	86.120219	984.522454	-50.314821	148.917834	923.222881	-59.196741	175.143989	841.716954	-60.740566	178.185365	942.407512	-73.219359	241.666267	722.800228	-90.357144	229.371488	704.608991	-190.492640	214.381425	582.191437	-60.527536	223.872266	495.216800	-79.392710	191.693321	414.276026	-74.581160	237.269086	496.979646	-117.383118	168.623556	273.291737	-76.228594	106.948736	224.123554	-103.546357	397.943323	249.272823	-129.452954	329.964760	201.520938	-56.564161	94.816496	1039.133205	-421.381629	181.816298	1023.857971	-418.169932	196.654550	1055.691892	-408.953975	250.376150	967.093352	-413.366695	385.712150	861.314361	-379.270886	372.923215	842.414018	-278.125654	272.684769	762.949125	-397.636449	223.882275	693.776444	-382.102458	142.140535	654.907316	-389.261939	230.008165	689.887104	-340.363878	36.073352	579.105548	-391.226979	-38.459425	593.149139	-357.044641	158.188840	380.909153	-362.015190	82.449077	419.517005	-421.179256	-263.379673	968.222489	-237.204762	-83.425675	79.196136	-437.524947	-83.464910	78.986586	-39.829317	
751	3.7550	443.602816	1469.253907	-101.628425	437.553701	1448.817001	-374.090929	400.182523	1515.046774	-244.181938	363.794563	1366.589268	-237.019870	488.227490	1147.070691	45.929801	687.038893	946.553827	-62.428157	480.011728	1138.873894	-531.955244	688.746505	937.984560	-451.204118	-137.035411	1190.067631	-249.246135	13.831566	1266.560139	-385.853225	18.201319	1261.718469	-93.751714	53.618353	1197.415891	-357.243075	45.240916	1203.843473	-105.803740	-115.691324	1233.503633	-197.697236	-108.150386	1244.322628	-303.604952	-24.129590	1110.227708	-56.524668	-5.679519	1111.364369	-420.409424	83.894983	980.630516	-48.250240	145.172015	917.863774	-57.303562	169.094749	835.552597	-59.306190	174.932228	936.287734	-70.959135	233.973473	716.162260	-89.194996	221.132580	697.963001	-189.131883	206.803971	575.597136	-59.295604	216.637860	488.734122	-78.488158	184.698927	407.586132	-73.807853	229.957273	490.526058	-116.468726	162.278495	266.870718	-75.767939	100.116552	218.315946	-103.356384	391.332589	239.908387	-129.377687	322.801881	192.895093	-56.543386	96.162450	1045.023571	-420.163219	183.508655	1031.807136	-417.333547	197.638069	1063.906161	-407.962238	253.398193	976.532564	-413.134686	391.305882	873.212095	-379.786445	378.941443	854.180502	-278.826589	279.731849	772.980121	-397.960691	231.628579	703.288757	-382.781138	150.756203	663.743079	-389.596531	238.428655	700.139850	-341.449605	44.773505	587.369669	-392.194535	-29.340710	602.056994	-357.475891	165.719489	388.500582	-362.262453	90.207734	427.504045	-421.327768	-263.295436	968.273848	-236.921300	-83.427217	79.281060	-437.497352	-83.433704	78.942169	-39.804848	
752	3.7600	446.285378	1469.343544	-105.735712	434.368491	1449.736247	-378.062160	400.153515	1516.257234	-247.206209	362.440617	1368.130059	-239.872425	490.014467	1148.333993	44.807137	687.813705	946.886953	-62.953052	478.747682	1138.702203	-531.461110	688.559837	938.287814	-450.853307	-136.275408	1190.729833	-244.772080	11.658219	1268.606581	-380.809634	21.087490	1260.948395	-90.036533	52.886241	1199.910067	-354.299642	47.368897	1202.604922	-102.841979	-114.401860	1233.828861	-192.838769	-108.351309	1245.675259	-298.508827	-22.732985	1108.934485	-54.122583	-5.774517	1115.513163	-418.934336	81.797101	976.852231	-46.185115	141.527315	912.615665	-55.376230	163.076178	829.865301	-58.029317	171.721162	930.804718	-67.615083	226.575159	709.795391	-88.217789	213.170471	691.886148	-188.041095	199.412223	569.251284	-58.419980	209.303839	482.408902	-77.737356	177.521606	401.316201	-73.173844	222.596837	484.465026	-115.760888	155.034938	260.581114	-75.593281	92.806776	213.010414	-103.173885	384.216385	230.922536	-129.224843	315.044700	184.951619	-56.301746	97.585600	1051.408872	-418.999640	185.205592	1040.187325	-416.485622	198.630361	1072.554293	-406.992487	256.382039	986.607268	-412.939780	397.049050	885.643757	-380.498007	384.847124	865.939523	-278.620491	287.302093	783.629782	-398.741151	239.605481	713.496885	-383.501047	159.407291	672.250791	-390.131165	246.574097	709.913150	-342.140321	54.713193	595.084194	-393.507254	-19.498961	610.600484	-357.570162	173.784196	395.564264	-362.363863	98.741217	434.906140	-421.928987	-263.185410	968.321905	-236.595781	-83.462168	79.366947	-437.478800	-83.455149	78.929678	-39.772990	
753	3.7650	448.791349	1469.299264	-109.867932	431.116049	1450.638374	-381.987422	399.949336	1517.234298	-249.851986	361.313650	1369.340559	-242.429135	491.681345	1149.339214	43.743114	688.462865	946.875815	-63.041433	477.462777	1138.562966	-531.078411	688.193999	938.857631	-450.744309	-135.557424	1191.277882	-240.446252	9.743982	1271.247592	-377.306569	24.068733	1259.432256	-86.818550	52.229860	1202.378424	-351.496580	49.620291	1201.345619	-100.087644	-113.272133	1234.170723	-187.867373	-108.486572	1246.935783	-293.529097	-21.304050	1107.586128	-51.911412	-5.882563	1119.756002	-417.368787	79.851799	973.389945	-44.117958	138.009165	907.776086	-53.397955	157.675881	824.396696	-56.508272	168.623174	925.334828	-65.667406	219.450626	703.807661	-87.345378	205.402667	686.044119	-187.167676	192.223260	563.332117	-57.655317	201.946434	476.668343	-77.098831	170.185979	395.389733	-72.675292	215.163243	478.610671	-115.240900	147.436187	254.886774	-75.366458	85.056397	208.251621	-103.002020	376.451164	222.409011	-129.295495	306.810126	177.370194	-56.224376	98.891380	1057.953524	-417.818915	186.793739	1048.999435	-415.792713	199.430392	1081.437610	-405.966127	259.298333	996.994510	-412.680132	402.786426	898.483421	-381.174725	390.715777	878.467013	-278.496099	295.233138	794.121419	-399.271867	248.374168	723.370579	-384.314697	169.062065	681.291998	-390.557305	255.367356	719.936293	-342.865087	65.435010	602.526331	-394.843201	-8.948602	618.748069	-357.838341	181.942060	401.209999	-361.310355	108.120644	442.475926	-422.640355	-263.081613	968.329450	-236.341967	-83.462848	79.425219	-437.452236	-83.419846	78.944361	-39.762687	
754	3.7700	451.101321	1469.182000	-113.937739	427.813022	1451.422952	-385.924455	399.581304	1518.160722	-252.373895	360.124401	1370.477887	-244.893388	493.203639	1150.330327	42.708600	689.385871	947.072780	-63.236192	476.188813	1138.432096	-530.579354	687.895448	939.101259	-450.466132	-134.700553	1192.086633	-237.868723	3.143522	1269.099301	-360.494179	27.085032	1258.156052	-83.715982	51.759160	1204.927611	-348.764804	51.863294	1200.109648	-97.404800	-112.254101	1234.414445	-182.919835	-108.633991	1248.030491	-288.627071	-19.828571	1106.217926	-49.792622	-6.081953	1123.846924	-415.724001	78.192031	970.328131	-42.280565	134.819378	903.303209	-51.553620	152.611576	819.537138	-54.983382	165.733341	919.898157	-65.084424	212.683305	698.317581	-86.421129	197.972061	680.828418	-186.588499	185.199552	557.796050	-57.160793	194.720958	471.193932	-76.658161	162.729344	390.148805	-72.201684	207.755216	473.249544	-114.800009	139.509492	249.723917	-75.236904	76.909857	204.086712	-102.844200	368.267172	214.222936	-129.500763	297.864971	169.392941	-57.042111	100.007898	1064.625378	-416.686592	188.097737	1057.802418	-415.048093	199.962685	1090.494817	-404.823845	261.852926	1007.613410	-412.557797	408.520720	911.521897	-382.056667	397.165231	891.059862	-279.696188	303.559736	804.665006	-400.356794	257.417616	733.213832	-385.029139	178.704625	690.164131	-391.630567	264.358477	730.064735	-343.600732	76.780233	609.546279	-396.058037	2.036417	626.633228	-358.896932	191.351918	407.423349	-361.413893	117.442853	448.952766	-422.188739	-263.013995	968.371812	-236.201312	-83.292966	79.604358	-437.587049	-83.415494	78.958277	-39.753504	
